REM DIRINDEX 1\2\6,1\2\7,1\2\8,1\3\9,1\3\10,1\3\11,1\4\12,1\4\13,1\4\14,1\5\15,1\5\16,1\5\17,1\5\18
REM DIRNAME cjc019,folder01,folder02,folder03,folder04,folder05,folder06,folder07,folder08,folder09,folder10,folder11,folder12,folder13,folder14,folder15,folder16,folder17
TITLE ""
FILE "2Q_k_041-050.mp3" MP3
  TRACK 01 AUDIO
    TITLE "9:cjc019_1740"
    INDEX 01 00:00:00
  TRACK 02 AUDIO
    TITLE "0:"
    INDEX 01 00:01:36
  TRACK 03 AUDIO
    TITLE "10:cjc019_1741"
    INDEX 01 00:02:20
  TRACK 04 AUDIO
    TITLE "0:"
    INDEX 01 00:05:30
  TRACK 05 AUDIO
    TITLE "11:cjc019_1742"
    INDEX 01 00:06:04
  TRACK 06 AUDIO
    TITLE "11:cjc019_1743"
    INDEX 01 00:10:21
  TRACK 07 AUDIO
    TITLE "0:"
    INDEX 01 00:15:11
  TRACK 08 AUDIO
    TITLE "9:cjc019_1744"
    INDEX 01 00:15:70
  TRACK 09 AUDIO
    TITLE "0:"
    INDEX 01 00:17:27
  TRACK 10 AUDIO
    TITLE "10:cjc019_1745"
    INDEX 01 00:18:09
  TRACK 11 AUDIO
    TITLE "0:"
    INDEX 01 00:19:58
  TRACK 12 AUDIO
    TITLE "11:cjc019_1746"
    INDEX 01 00:20:34
  TRACK 13 AUDIO
    TITLE "11:cjc019_1747"
    INDEX 01 00:24:37
  TRACK 14 AUDIO
    TITLE "0:"
    INDEX 01 00:28:27
  TRACK 15 AUDIO
    TITLE "9:cjc019_1748"
    INDEX 01 00:29:05
  TRACK 16 AUDIO
    TITLE "0:"
    INDEX 01 00:30:63
  TRACK 17 AUDIO
    TITLE "10:cjc019_1749"
    INDEX 01 00:31:41
  TRACK 18 AUDIO
    TITLE "0:"
    INDEX 01 00:33:44
  TRACK 19 AUDIO
    TITLE "11:cjc019_1750"
    INDEX 01 00:34:16
  TRACK 20 AUDIO
    TITLE "11:cjc019_1751"
    INDEX 01 00:38:35
  TRACK 21 AUDIO
    TITLE "0:"
    INDEX 01 00:42:02
  TRACK 22 AUDIO
    TITLE "9:cjc019_1752"
    INDEX 01 00:42:55
  TRACK 23 AUDIO
    TITLE "0:"
    INDEX 01 00:45:10
  TRACK 24 AUDIO
    TITLE "10:cjc019_1753"
    INDEX 01 00:45:61
  TRACK 25 AUDIO
    TITLE "0:"
    INDEX 01 00:48:24
  TRACK 26 AUDIO
    TITLE "11:cjc019_1754"
    INDEX 01 00:48:73
  TRACK 27 AUDIO
    TITLE "11:cjc019_1755"
    INDEX 01 00:51:56
  TRACK 28 AUDIO
    TITLE "0:"
    INDEX 01 00:57:05
  TRACK 29 AUDIO
    TITLE "9:cjc019_1756"
    INDEX 01 00:57:58
  TRACK 30 AUDIO
    TITLE "0:"
    INDEX 01 00:59:73
  TRACK 31 AUDIO
    TITLE "10:cjc019_1757"
    INDEX 01 01:00:55
  TRACK 32 AUDIO
    TITLE "0:"
    INDEX 01 01:02:32
  TRACK 33 AUDIO
    TITLE "11:cjc019_1758"
    INDEX 01 01:03:10
  TRACK 34 AUDIO
    TITLE "11:cjc019_1759"
    INDEX 01 01:07:06
  TRACK 35 AUDIO
    TITLE "11:cjc019_1760"
    INDEX 01 01:12:46
  TRACK 36 AUDIO
    TITLE "0:"
    INDEX 01 01:15:60
  TRACK 37 AUDIO
    TITLE "9:cjc019_1761"
    INDEX 01 01:16:32
  TRACK 38 AUDIO
    TITLE "0:"
    INDEX 01 01:18:56
  TRACK 39 AUDIO
    TITLE "10:cjc019_1762"
    INDEX 01 01:19:28
  TRACK 40 AUDIO
    TITLE "0:"
    INDEX 01 01:21:25
  TRACK 41 AUDIO
    TITLE "11:cjc019_1763"
    INDEX 01 01:21:70
  TRACK 42 AUDIO
    TITLE "11:cjc019_1764"
    INDEX 01 01:25:53
  TRACK 43 AUDIO
    TITLE "0:"
    INDEX 01 01:29:23
  TRACK 44 AUDIO
    TITLE "9:cjc019_1765"
    INDEX 01 01:30:01
  TRACK 45 AUDIO
    TITLE "0:"
    INDEX 01 01:31:47
  TRACK 46 AUDIO
    TITLE "10:cjc019_1766"
    INDEX 01 01:32:19
  TRACK 47 AUDIO
    TITLE "0:"
    INDEX 01 01:34:20
  TRACK 48 AUDIO
    TITLE "11:cjc019_1767"
    INDEX 01 01:35:00
  TRACK 49 AUDIO
    TITLE "11:cjc019_1768"
    INDEX 01 01:38:43
  TRACK 50 AUDIO
    TITLE "0:"
    INDEX 01 01:44:60
  TRACK 51 AUDIO
    TITLE "9:cjc019_1769"
    INDEX 01 01:45:44
  TRACK 52 AUDIO
    TITLE "0:"
    INDEX 01 01:48:38
  TRACK 53 AUDIO
    TITLE "10:cjc019_1770"
    INDEX 01 01:49:14
  TRACK 54 AUDIO
    TITLE "0:"
    INDEX 01 01:51:56
  TRACK 55 AUDIO
    TITLE "11:cjc019_1771"
    INDEX 01 01:52:38
  TRACK 56 AUDIO
    TITLE "11:cjc019_1772"
    INDEX 01 01:56:04
  TRACK 57 AUDIO
    TITLE "0:"
    INDEX 01 02:01:05
  TRACK 58 AUDIO
    TITLE "9:cjc019_1773"
    INDEX 01 02:01:64
  TRACK 59 AUDIO
    TITLE "0:"
    INDEX 01 02:03:39
  TRACK 60 AUDIO
    TITLE "10:cjc019_1774"
    INDEX 01 02:04:25
  TRACK 61 AUDIO
    TITLE "0:"
    INDEX 01 02:06:28
  TRACK 62 AUDIO
    TITLE "11:cjc019_1775"
    INDEX 01 02:07:06
  TRACK 63 AUDIO
    TITLE "11:cjc019_1776"
    INDEX 01 02:10:61
  TRACK 64 AUDIO
    TITLE "0:"
    INDEX 01 02:15:56
  TRACK 65 AUDIO
    TITLE "9:cjc019_1777"
    INDEX 01 02:16:30
  TRACK 66 AUDIO
    TITLE "0:"
    INDEX 01 02:18:23
  TRACK 67 AUDIO
    TITLE "10:cjc019_1778"
    INDEX 01 02:19:01
  TRACK 68 AUDIO
    TITLE "0:"
    INDEX 01 02:21:26
  TRACK 69 AUDIO
    TITLE "11:cjc019_1779"
    INDEX 01 02:22:06
  TRACK 70 AUDIO
    TITLE "11:cjc019_1780"
    INDEX 01 02:25:33
  TRACK 71 AUDIO
    TITLE "0:"
    INDEX 01 02:27:63
